# xmcd
#
# Track frame offsets:
#	150
#	18765
#	32830
#	46595
#	58047
#	69487
#	81277
#	105295
#	115697
#	133097
#	144172
#	161167
#	174145
#	188460
#	200487
#	213947
#	224465
#	237597
#
# Disc length: 3324 seconds
#
# Revision: 2
# Processed by: cddbd v1.5.1PL0 Copyright (c) Steve Scherf et al.
# Submitted via: audiograbber 1.83.01
#
DISCID=ee0cfa12
DTITLE=Isaac Payton Sweat - Cotton Eyed Joe
DYEAR=1998
DGENRE=Country
TTITLE0=Mathilda
TTITLE1=National Chili Anthem
TTITLE2=I Could Never Pass A Honky Tonk
TTITLE3=Cotton Eyed Joe
TTITLE4=Sweat's Schottische
TTITLE5=Shed So Many Tears
TTITLE6=Let's Do The Joe Bailey Roll
TTITLE7=Hot Corn, Cold Corn
TTITLE8=I'm Gonna Kill Ya'
TTITLE9=Rancho Grande
TTITLE10=Medley: Little Foot - Hokey Pokey - Bunny Hop
TTITLE11=Meanwhile, Back At The Ranch
TTITLE12=Allons Dancez (C'mon Let's Dance)
TTITLE13=Family
TTITLE14=You Still Know The Way To My Heart
TTITLE15=Say It's Not You
TTITLE16=A Hangover Sure Hangs On
TTITLE17=I Hate To Go Searching The Bars Again
EXTD=LABEL =M. I. L. Multimedia LLC\nID =mil3035\nUPC =795676-303523\nCOPYRI
EXTD=GHT =1997, 1998
EXTT0=
EXTT1=
EXTT2=
EXTT3=
EXTT4=
EXTT5=
EXTT6=
EXTT7=
EXTT8=
EXTT9=
EXTT10=
EXTT11=
EXTT12=
EXTT13=
EXTT14=
EXTT15=
EXTT16=
EXTT17=
PLAYORDER=
